<svg width="24" height="33" viewBox="0 0 24 33" fill="none" xmlns="http://www.w3.org/2000/svg">
<path d="M6.04257 23.6624C5.50186 23.1193 5.78372 23.2724 4.47954 22.9218C3.88781 22.7624 3.36763 22.4562 2.89723 22.0893L0.0742098 29.0418C-0.198946 29.7149 0.311276 30.4462 1.0343 30.4187L4.31279 30.2931L6.56772 32.6856C7.0655 33.2131 7.9391 33.0487 8.21226 32.3756L11.4509 24.3993C10.7764 24.7768 10.0279 24.9981 9.25386 24.9981C8.04052 24.9981 6.90061 24.5237 6.04257 23.6624ZM23.8182 29.0418L20.9952 22.0893C20.5248 22.4568 20.0046 22.7624 19.4129 22.9218C18.1019 23.2743 18.3893 23.1206 17.8499 23.6624C16.9918 24.5237 15.8513 24.9981 14.6379 24.9981C13.8639 24.9981 13.1154 24.7762 12.4409 24.3993L15.6795 32.3756C15.9527 33.0487 16.8269 33.2131 17.3241 32.6856L19.5796 30.2931L22.8581 30.4187C23.5811 30.4462 24.0914 29.7143 23.8182 29.0418ZM16.364 22.2481C17.3147 21.2762 17.4236 21.3599 18.7776 20.9893C19.6419 20.7524 20.3176 20.0618 20.5491 19.1781C21.0145 17.4031 20.8938 17.6174 22.1637 16.3187C22.7965 15.6718 23.0435 14.7287 22.8121 13.8449C22.3473 12.0712 22.3467 12.3187 22.8121 10.5431C23.0435 9.65931 22.7965 8.71619 22.1637 8.06931C20.8938 6.77056 21.0145 6.98431 20.5491 5.20994C20.3176 4.32619 19.6419 3.63556 18.7776 3.39869C17.0428 2.92306 17.2519 3.04744 15.9807 1.74806C15.3479 1.10119 14.4251 0.848063 13.5609 1.08494C11.8267 1.55994 12.0688 1.56056 10.3315 1.08494C9.46728 0.848063 8.54452 1.10056 7.91172 1.74806C6.64177 3.04681 6.85083 2.92306 5.11546 3.39869C4.25119 3.63556 3.57545 4.32619 3.34399 5.20994C2.87919 6.98431 2.99928 6.77056 1.72932 8.06931C1.09652 8.71619 0.848877 9.65931 1.08097 10.5431C1.54577 12.3156 1.54639 12.0681 1.08097 13.8443C0.849499 14.7281 1.09652 15.6712 1.72932 16.3187C2.99928 17.6174 2.87857 17.4031 3.34399 19.1781C3.57545 20.0618 4.25119 20.7524 5.11546 20.9893C6.50799 21.3706 6.6119 21.3106 7.52843 22.2481C8.35163 23.0899 9.63403 23.2406 10.6234 22.6118C11.019 22.3595 11.4779 22.2256 11.9465 22.2256C12.4151 22.2256 12.8741 22.3595 13.2697 22.6118C14.2584 23.2406 15.5408 23.0899 16.364 22.2481ZM6.07617 11.9956C6.07617 8.68119 8.70443 5.99431 11.9462 5.99431C15.188 5.99431 17.8163 8.68119 17.8163 11.9956C17.8163 15.3099 15.188 17.9968 11.9462 17.9968C8.70443 17.9968 6.07617 15.3099 6.07617 11.9956Z" fill="#00A0C1"/>
</svg>
