<svg width="72" height="72" viewBox="0 0 72 72" fill="none" xmlns="http://www.w3.org/2000/svg">
<rect width="72" height="72" rx="36" fill="white"/>
<g clip-path="url(#clip0_2_128)">
<g clip-path="url(#clip1_2_128)">
<path d="M35.9037 35.7042C38.5041 35.7042 40.5267 33.5695 40.5267 30.9497C40.5267 28.3299 38.4078 26.2922 35.8074 26.2922C33.2069 26.2922 31.1844 28.4269 31.1844 30.9497C31.1844 33.5695 33.3032 35.7042 35.9037 35.7042ZM35.8074 28.2328C35.9037 28.2328 35.9037 28.2328 35.8074 28.2328C37.3484 28.2328 38.6005 29.4942 38.6005 31.0467C38.6005 32.5992 37.3484 33.7636 35.8074 33.7636C34.2664 33.7636 33.1106 32.5022 33.1106 31.0467C33.1106 29.4942 34.3627 28.2328 35.8074 28.2328Z" fill="#00A0C1"/>
<path d="M50.158 35.1219C48.328 33.4724 45.9202 32.5991 43.4161 32.6961H42.6456C42.4529 33.4724 42.164 34.1516 41.7787 34.7338C42.3566 34.6367 42.8382 34.6367 43.4161 34.6367C45.246 34.5397 47.076 35.1219 48.5207 36.1892V43.1754H50.4469V35.413L50.158 35.1219Z" fill="#00A0C1"/>
<path d="M41.2009 26.486C41.6825 25.3217 43.0309 24.7395 44.2829 25.2246C45.4387 25.7098 46.0166 27.0682 45.535 28.3296C45.1498 29.2029 44.2829 29.7851 43.4161 29.7851C43.2235 29.7851 42.9346 29.7851 42.7419 29.688C42.8382 30.1732 42.8382 30.6583 42.8382 31.0464V31.6286C43.0309 31.6286 43.2235 31.7257 43.4161 31.7257C45.8239 31.7257 47.7502 29.7851 47.7502 27.4563C47.7502 25.0306 45.8239 23.09 43.5124 23.09C41.9714 23.09 40.623 23.8662 39.8525 25.2246C40.3341 25.5157 40.8157 25.9038 41.2009 26.486Z" fill="#00A0C1"/>
<path d="M30.2212 34.8308C29.836 34.2487 29.547 33.5694 29.3544 32.7932H28.5839C26.0798 32.6962 23.672 33.5694 21.842 35.1219L21.5531 35.413V43.1754H23.4793V36.1893C25.0203 35.1219 26.754 34.5397 28.5839 34.6368C29.1618 34.6368 29.7397 34.7338 30.2212 34.8308Z" fill="#00A0C1"/>
<path d="M28.5839 31.6289C28.7765 31.6289 28.9691 31.6289 29.1618 31.5319V30.9497C29.1618 30.4645 29.1618 29.9794 29.2581 29.5913C29.0655 29.6883 28.7765 29.6883 28.5839 29.6883C27.3318 29.6883 26.2724 28.621 26.2724 27.3596C26.2724 26.0982 27.3318 25.0308 28.5839 25.0308C29.547 25.0308 30.4138 25.613 30.7991 26.4863C31.1843 26.0012 31.7622 25.516 32.2438 25.1279C30.9917 23.0902 28.3913 22.411 26.3687 23.6724C24.3461 24.9338 23.6719 27.5536 24.924 29.5913C25.6945 30.8527 27.0429 31.6289 28.5839 31.6289Z" fill="#00A0C1"/>
<path d="M43.8013 40.9437L43.6086 40.6526C41.6824 38.518 38.9856 37.2566 36.0962 37.3536C33.2069 37.2566 30.4138 38.518 28.4875 40.6526L28.2949 40.9437V48.318C28.2949 49.1913 28.9691 49.9675 29.9322 49.9675H42.2603C43.1271 49.9675 43.8976 49.1913 43.8976 48.318V40.9437H43.8013ZM41.875 48.0269H30.2211V41.6229C31.7622 40.0705 33.881 39.2942 36.0962 39.2942C38.2151 39.1972 40.334 40.0705 41.875 41.6229V48.0269Z" fill="#00A0C1"/>
</g>
</g>
<defs>
<clipPath id="clip0_2_128">
<rect width="32" height="26.353" fill="white" transform="translate(20 23)"/>
</clipPath>
<clipPath id="clip1_2_128">
<rect width="29" height="27" fill="white" transform="translate(21.5 23)"/>
</clipPath>
</defs>
</svg>
